<?xml version="1.0" standalone="no"?>
<!DOCTYPE svg PUBLIC "-//W3C//DTD SVG 20010904//EN"
 "http://www.w3.org/TR/2001/REC-SVG-20010904/DTD/svg10.dtd">
<svg version="1.0" xmlns="http://www.w3.org/2000/svg"
 width="200.000000pt" height="200.000000pt" viewBox="0 0 200.000000 200.000000"
 preserveAspectRatio="xMidYMid meet">
<metadata>
Created by potrace 1.11, written by Peter Selinger 2001-2013
</metadata>
<g transform="translate(0.000000,200.000000) scale(0.100000,-0.100000)"
fill="#000000" stroke="none">
<path d="M1018 1616 c-17 -32 -99 -175 -115 -201 -7 -11 -15 -26 -19 -33 -4
-8 -49 -86 -100 -174 l-93 -160 -18 29 c-10 17 -36 62 -58 101 -22 40 -43 72
-47 72 -8 0 -23 -24 -304 -515 -117 -203 -211 -372 -208 -374 6 -6 1843 -5
1849 1 6 5 -318 653 -335 671 -7 8 -51 -55 -82 -117 -8 -16 -17 -25 -20 -20
-16 26 -348 600 -385 667 -24 42 -46 77 -48 77 -2 0 -10 -11 -17 -24z m80
-148 c33 -57 67 -116 76 -133 9 -16 21 -37 26 -45 5 -8 27 -45 49 -82 38 -66
39 -68 17 -68 -18 0 -26 9 -36 43 -25 79 -24 79 -72 57 l-42 -19 -44 80 c-24
44 -45 79 -47 77 -1 -2 -13 -66 -25 -143 -21 -127 -40 -204 -38 -150 0 11 -2
40 -5 65 -4 25 -9 65 -12 90 -3 24 -8 46 -11 49 -2 3 -31 -22 -64 -54 -33 -33
-60 -57 -60 -54 0 4 43 79 95 168 52 89 95 164 95 167 0 4 33 53 36 54 1 0 29
-46 62 -102z"/>
</g>
</svg>
