<!-- Generated by IcoMoon.io -->
<svg version="1.1" xmlns="http://www.w3.org/2000/svg" width="640" height="640" viewBox="0 0 640 640">
<title></title>
<g id="icomoon-ignore">
</g>
<path fill="#6788ce" d="M544 32h-448c-35.2 0-64 28.8-64 64v448c0 35.232 28.8 64 64 64h224v-224h-64v-79.2h64v-65.6c0-69.248 38.784-117.888 120.512-117.888l57.696 0.064v83.36h-38.304c-31.808 0-43.904 23.872-43.904 46.016v54.080h82.176l-18.176 79.168h-64v224h128c35.2 0 64-28.768 64-64v-448c0-35.2-28.8-64-64-64z"></path>
</svg>
