<svg xmlns="http://www.w3.org/2000/svg" width="81" height="7" viewBox="0 0 81 7"><g><g opacity=".2"><path fill="#191919" d="M70.54 6.999l-5.006-5.162-5.007 5.162-5.007-5.162-5.007 5.162-5.006-5.162L40.5 6.999l-5.007-5.162-5.007 5.162-5.006-5.162-5.007 5.162-5.007-5.162-5.007 5.162-5.007-5.162-4.56 4.702L0 5.619 5.452 0 10.46 5.16 15.466 0l5.007 5.161L25.48 0l5.006 5.161L35.493 0 40.5 5.16 45.507 0l5.006 5.161L55.52 0l5.007 5.161L65.534 0 70.54 5.16 75.547 0 81 5.619l-.892.92-4.56-4.702z"/></g></g></svg>